G04 #@! TF.GenerationSoftware,KiCad,Pcbnew,7.0.1*
G04 #@! TF.CreationDate,2023-04-18T09:12:00+08:00*
G04 #@! TF.ProjectId,Front Control Panel,46726f6e-7420-4436-9f6e-74726f6c2050,rev?*
G04 #@! TF.SameCoordinates,Original*
G04 #@! TF.FileFunction,Legend,Top*
G04 #@! TF.FilePolarity,Positive*
%FSLAX46Y46*%
G04 Gerber Fmt 4.6, Leading zero omitted, Abs format (unit mm)*
G04 Created by KiCad (PCBNEW 7.0.1) date 2023-04-18 09:12:00*
%MOMM*%
%LPD*%
G01*
G04 APERTURE LIST*
%ADD10C,0.150000*%
%ADD11C,0.120000*%
%ADD12C,0.127000*%
G04 APERTURE END LIST*
D10*
X98666666Y-76592619D02*
X98666666Y-77306904D01*
X98666666Y-77306904D02*
X98619047Y-77449761D01*
X98619047Y-77449761D02*
X98523809Y-77545000D01*
X98523809Y-77545000D02*
X98380952Y-77592619D01*
X98380952Y-77592619D02*
X98285714Y-77592619D01*
X99571428Y-76925952D02*
X99571428Y-77592619D01*
X99333333Y-76545000D02*
X99095238Y-77259285D01*
X99095238Y-77259285D02*
X99714285Y-77259285D01*
X80866666Y-70392619D02*
X80866666Y-71106904D01*
X80866666Y-71106904D02*
X80819047Y-71249761D01*
X80819047Y-71249761D02*
X80723809Y-71345000D01*
X80723809Y-71345000D02*
X80580952Y-71392619D01*
X80580952Y-71392619D02*
X80485714Y-71392619D01*
X81247619Y-70392619D02*
X81914285Y-70392619D01*
X81914285Y-70392619D02*
X81485714Y-71392619D01*
X81066666Y-77732619D02*
X81066666Y-78446904D01*
X81066666Y-78446904D02*
X81019047Y-78589761D01*
X81019047Y-78589761D02*
X80923809Y-78685000D01*
X80923809Y-78685000D02*
X80780952Y-78732619D01*
X80780952Y-78732619D02*
X80685714Y-78732619D01*
X81685714Y-78161190D02*
X81590476Y-78113571D01*
X81590476Y-78113571D02*
X81542857Y-78065952D01*
X81542857Y-78065952D02*
X81495238Y-77970714D01*
X81495238Y-77970714D02*
X81495238Y-77923095D01*
X81495238Y-77923095D02*
X81542857Y-77827857D01*
X81542857Y-77827857D02*
X81590476Y-77780238D01*
X81590476Y-77780238D02*
X81685714Y-77732619D01*
X81685714Y-77732619D02*
X81876190Y-77732619D01*
X81876190Y-77732619D02*
X81971428Y-77780238D01*
X81971428Y-77780238D02*
X82019047Y-77827857D01*
X82019047Y-77827857D02*
X82066666Y-77923095D01*
X82066666Y-77923095D02*
X82066666Y-77970714D01*
X82066666Y-77970714D02*
X82019047Y-78065952D01*
X82019047Y-78065952D02*
X81971428Y-78113571D01*
X81971428Y-78113571D02*
X81876190Y-78161190D01*
X81876190Y-78161190D02*
X81685714Y-78161190D01*
X81685714Y-78161190D02*
X81590476Y-78208809D01*
X81590476Y-78208809D02*
X81542857Y-78256428D01*
X81542857Y-78256428D02*
X81495238Y-78351666D01*
X81495238Y-78351666D02*
X81495238Y-78542142D01*
X81495238Y-78542142D02*
X81542857Y-78637380D01*
X81542857Y-78637380D02*
X81590476Y-78685000D01*
X81590476Y-78685000D02*
X81685714Y-78732619D01*
X81685714Y-78732619D02*
X81876190Y-78732619D01*
X81876190Y-78732619D02*
X81971428Y-78685000D01*
X81971428Y-78685000D02*
X82019047Y-78637380D01*
X82019047Y-78637380D02*
X82066666Y-78542142D01*
X82066666Y-78542142D02*
X82066666Y-78351666D01*
X82066666Y-78351666D02*
X82019047Y-78256428D01*
X82019047Y-78256428D02*
X81971428Y-78208809D01*
X81971428Y-78208809D02*
X81876190Y-78161190D01*
X99113333Y-79692619D02*
X98780000Y-79216428D01*
X98541905Y-79692619D02*
X98541905Y-78692619D01*
X98541905Y-78692619D02*
X98922857Y-78692619D01*
X98922857Y-78692619D02*
X99018095Y-78740238D01*
X99018095Y-78740238D02*
X99065714Y-78787857D01*
X99065714Y-78787857D02*
X99113333Y-78883095D01*
X99113333Y-78883095D02*
X99113333Y-79025952D01*
X99113333Y-79025952D02*
X99065714Y-79121190D01*
X99065714Y-79121190D02*
X99018095Y-79168809D01*
X99018095Y-79168809D02*
X98922857Y-79216428D01*
X98922857Y-79216428D02*
X98541905Y-79216428D01*
X100018095Y-78692619D02*
X99541905Y-78692619D01*
X99541905Y-78692619D02*
X99494286Y-79168809D01*
X99494286Y-79168809D02*
X99541905Y-79121190D01*
X99541905Y-79121190D02*
X99637143Y-79073571D01*
X99637143Y-79073571D02*
X99875238Y-79073571D01*
X99875238Y-79073571D02*
X99970476Y-79121190D01*
X99970476Y-79121190D02*
X100018095Y-79168809D01*
X100018095Y-79168809D02*
X100065714Y-79264047D01*
X100065714Y-79264047D02*
X100065714Y-79502142D01*
X100065714Y-79502142D02*
X100018095Y-79597380D01*
X100018095Y-79597380D02*
X99970476Y-79645000D01*
X99970476Y-79645000D02*
X99875238Y-79692619D01*
X99875238Y-79692619D02*
X99637143Y-79692619D01*
X99637143Y-79692619D02*
X99541905Y-79645000D01*
X99541905Y-79645000D02*
X99494286Y-79597380D01*
X80866666Y-69992619D02*
X80866666Y-70706904D01*
X80866666Y-70706904D02*
X80819047Y-70849761D01*
X80819047Y-70849761D02*
X80723809Y-70945000D01*
X80723809Y-70945000D02*
X80580952Y-70992619D01*
X80580952Y-70992619D02*
X80485714Y-70992619D01*
X81866666Y-70992619D02*
X81295238Y-70992619D01*
X81580952Y-70992619D02*
X81580952Y-69992619D01*
X81580952Y-69992619D02*
X81485714Y-70135476D01*
X81485714Y-70135476D02*
X81390476Y-70230714D01*
X81390476Y-70230714D02*
X81295238Y-70278333D01*
X80666666Y-62132619D02*
X80666666Y-62846904D01*
X80666666Y-62846904D02*
X80619047Y-62989761D01*
X80619047Y-62989761D02*
X80523809Y-63085000D01*
X80523809Y-63085000D02*
X80380952Y-63132619D01*
X80380952Y-63132619D02*
X80285714Y-63132619D01*
X81571428Y-62132619D02*
X81380952Y-62132619D01*
X81380952Y-62132619D02*
X81285714Y-62180238D01*
X81285714Y-62180238D02*
X81238095Y-62227857D01*
X81238095Y-62227857D02*
X81142857Y-62370714D01*
X81142857Y-62370714D02*
X81095238Y-62561190D01*
X81095238Y-62561190D02*
X81095238Y-62942142D01*
X81095238Y-62942142D02*
X81142857Y-63037380D01*
X81142857Y-63037380D02*
X81190476Y-63085000D01*
X81190476Y-63085000D02*
X81285714Y-63132619D01*
X81285714Y-63132619D02*
X81476190Y-63132619D01*
X81476190Y-63132619D02*
X81571428Y-63085000D01*
X81571428Y-63085000D02*
X81619047Y-63037380D01*
X81619047Y-63037380D02*
X81666666Y-62942142D01*
X81666666Y-62942142D02*
X81666666Y-62704047D01*
X81666666Y-62704047D02*
X81619047Y-62608809D01*
X81619047Y-62608809D02*
X81571428Y-62561190D01*
X81571428Y-62561190D02*
X81476190Y-62513571D01*
X81476190Y-62513571D02*
X81285714Y-62513571D01*
X81285714Y-62513571D02*
X81190476Y-62561190D01*
X81190476Y-62561190D02*
X81142857Y-62608809D01*
X81142857Y-62608809D02*
X81095238Y-62704047D01*
X91543095Y-64252619D02*
X91543095Y-63252619D01*
X91543095Y-63728809D02*
X92114523Y-63728809D01*
X92114523Y-64252619D02*
X92114523Y-63252619D01*
X93114523Y-64252619D02*
X92543095Y-64252619D01*
X92828809Y-64252619D02*
X92828809Y-63252619D01*
X92828809Y-63252619D02*
X92733571Y-63395476D01*
X92733571Y-63395476D02*
X92638333Y-63490714D01*
X92638333Y-63490714D02*
X92543095Y-63538333D01*
X90166905Y-67452619D02*
X90166905Y-66452619D01*
X90166905Y-66928809D02*
X90738333Y-66928809D01*
X90738333Y-67452619D02*
X90738333Y-66452619D01*
X91785952Y-67357380D02*
X91738333Y-67405000D01*
X91738333Y-67405000D02*
X91595476Y-67452619D01*
X91595476Y-67452619D02*
X91500238Y-67452619D01*
X91500238Y-67452619D02*
X91357381Y-67405000D01*
X91357381Y-67405000D02*
X91262143Y-67309761D01*
X91262143Y-67309761D02*
X91214524Y-67214523D01*
X91214524Y-67214523D02*
X91166905Y-67024047D01*
X91166905Y-67024047D02*
X91166905Y-66881190D01*
X91166905Y-66881190D02*
X91214524Y-66690714D01*
X91214524Y-66690714D02*
X91262143Y-66595476D01*
X91262143Y-66595476D02*
X91357381Y-66500238D01*
X91357381Y-66500238D02*
X91500238Y-66452619D01*
X91500238Y-66452619D02*
X91595476Y-66452619D01*
X91595476Y-66452619D02*
X91738333Y-66500238D01*
X91738333Y-66500238D02*
X91785952Y-66547857D01*
X92405000Y-66452619D02*
X92500238Y-66452619D01*
X92500238Y-66452619D02*
X92595476Y-66500238D01*
X92595476Y-66500238D02*
X92643095Y-66547857D01*
X92643095Y-66547857D02*
X92690714Y-66643095D01*
X92690714Y-66643095D02*
X92738333Y-66833571D01*
X92738333Y-66833571D02*
X92738333Y-67071666D01*
X92738333Y-67071666D02*
X92690714Y-67262142D01*
X92690714Y-67262142D02*
X92643095Y-67357380D01*
X92643095Y-67357380D02*
X92595476Y-67405000D01*
X92595476Y-67405000D02*
X92500238Y-67452619D01*
X92500238Y-67452619D02*
X92405000Y-67452619D01*
X92405000Y-67452619D02*
X92309762Y-67405000D01*
X92309762Y-67405000D02*
X92262143Y-67357380D01*
X92262143Y-67357380D02*
X92214524Y-67262142D01*
X92214524Y-67262142D02*
X92166905Y-67071666D01*
X92166905Y-67071666D02*
X92166905Y-66833571D01*
X92166905Y-66833571D02*
X92214524Y-66643095D01*
X92214524Y-66643095D02*
X92262143Y-66547857D01*
X92262143Y-66547857D02*
X92309762Y-66500238D01*
X92309762Y-66500238D02*
X92405000Y-66452619D01*
X93643095Y-66452619D02*
X93166905Y-66452619D01*
X93166905Y-66452619D02*
X93119286Y-66928809D01*
X93119286Y-66928809D02*
X93166905Y-66881190D01*
X93166905Y-66881190D02*
X93262143Y-66833571D01*
X93262143Y-66833571D02*
X93500238Y-66833571D01*
X93500238Y-66833571D02*
X93595476Y-66881190D01*
X93595476Y-66881190D02*
X93643095Y-66928809D01*
X93643095Y-66928809D02*
X93690714Y-67024047D01*
X93690714Y-67024047D02*
X93690714Y-67262142D01*
X93690714Y-67262142D02*
X93643095Y-67357380D01*
X93643095Y-67357380D02*
X93595476Y-67405000D01*
X93595476Y-67405000D02*
X93500238Y-67452619D01*
X93500238Y-67452619D02*
X93262143Y-67452619D01*
X93262143Y-67452619D02*
X93166905Y-67405000D01*
X93166905Y-67405000D02*
X93119286Y-67357380D01*
X88866666Y-82132619D02*
X88866666Y-82846904D01*
X88866666Y-82846904D02*
X88819047Y-82989761D01*
X88819047Y-82989761D02*
X88723809Y-83085000D01*
X88723809Y-83085000D02*
X88580952Y-83132619D01*
X88580952Y-83132619D02*
X88485714Y-83132619D01*
X89295238Y-82227857D02*
X89342857Y-82180238D01*
X89342857Y-82180238D02*
X89438095Y-82132619D01*
X89438095Y-82132619D02*
X89676190Y-82132619D01*
X89676190Y-82132619D02*
X89771428Y-82180238D01*
X89771428Y-82180238D02*
X89819047Y-82227857D01*
X89819047Y-82227857D02*
X89866666Y-82323095D01*
X89866666Y-82323095D02*
X89866666Y-82418333D01*
X89866666Y-82418333D02*
X89819047Y-82561190D01*
X89819047Y-82561190D02*
X89247619Y-83132619D01*
X89247619Y-83132619D02*
X89866666Y-83132619D01*
X99473333Y-86062619D02*
X99140000Y-85586428D01*
X98901905Y-86062619D02*
X98901905Y-85062619D01*
X98901905Y-85062619D02*
X99282857Y-85062619D01*
X99282857Y-85062619D02*
X99378095Y-85110238D01*
X99378095Y-85110238D02*
X99425714Y-85157857D01*
X99425714Y-85157857D02*
X99473333Y-85253095D01*
X99473333Y-85253095D02*
X99473333Y-85395952D01*
X99473333Y-85395952D02*
X99425714Y-85491190D01*
X99425714Y-85491190D02*
X99378095Y-85538809D01*
X99378095Y-85538809D02*
X99282857Y-85586428D01*
X99282857Y-85586428D02*
X98901905Y-85586428D01*
X100330476Y-85395952D02*
X100330476Y-86062619D01*
X100092381Y-85015000D02*
X99854286Y-85729285D01*
X99854286Y-85729285D02*
X100473333Y-85729285D01*
X92032619Y-76886666D02*
X91556428Y-77219999D01*
X92032619Y-77458094D02*
X91032619Y-77458094D01*
X91032619Y-77458094D02*
X91032619Y-77077142D01*
X91032619Y-77077142D02*
X91080238Y-76981904D01*
X91080238Y-76981904D02*
X91127857Y-76934285D01*
X91127857Y-76934285D02*
X91223095Y-76886666D01*
X91223095Y-76886666D02*
X91365952Y-76886666D01*
X91365952Y-76886666D02*
X91461190Y-76934285D01*
X91461190Y-76934285D02*
X91508809Y-76981904D01*
X91508809Y-76981904D02*
X91556428Y-77077142D01*
X91556428Y-77077142D02*
X91556428Y-77458094D01*
X91032619Y-76553332D02*
X91032619Y-75934285D01*
X91032619Y-75934285D02*
X91413571Y-76267618D01*
X91413571Y-76267618D02*
X91413571Y-76124761D01*
X91413571Y-76124761D02*
X91461190Y-76029523D01*
X91461190Y-76029523D02*
X91508809Y-75981904D01*
X91508809Y-75981904D02*
X91604047Y-75934285D01*
X91604047Y-75934285D02*
X91842142Y-75934285D01*
X91842142Y-75934285D02*
X91937380Y-75981904D01*
X91937380Y-75981904D02*
X91985000Y-76029523D01*
X91985000Y-76029523D02*
X92032619Y-76124761D01*
X92032619Y-76124761D02*
X92032619Y-76410475D01*
X92032619Y-76410475D02*
X91985000Y-76505713D01*
X91985000Y-76505713D02*
X91937380Y-76553332D01*
X94066666Y-69592619D02*
X94066666Y-70306904D01*
X94066666Y-70306904D02*
X94019047Y-70449761D01*
X94019047Y-70449761D02*
X93923809Y-70545000D01*
X93923809Y-70545000D02*
X93780952Y-70592619D01*
X93780952Y-70592619D02*
X93685714Y-70592619D01*
X94447619Y-69592619D02*
X95066666Y-69592619D01*
X95066666Y-69592619D02*
X94733333Y-69973571D01*
X94733333Y-69973571D02*
X94876190Y-69973571D01*
X94876190Y-69973571D02*
X94971428Y-70021190D01*
X94971428Y-70021190D02*
X95019047Y-70068809D01*
X95019047Y-70068809D02*
X95066666Y-70164047D01*
X95066666Y-70164047D02*
X95066666Y-70402142D01*
X95066666Y-70402142D02*
X95019047Y-70497380D01*
X95019047Y-70497380D02*
X94971428Y-70545000D01*
X94971428Y-70545000D02*
X94876190Y-70592619D01*
X94876190Y-70592619D02*
X94590476Y-70592619D01*
X94590476Y-70592619D02*
X94495238Y-70545000D01*
X94495238Y-70545000D02*
X94447619Y-70497380D01*
X103466666Y-69592619D02*
X103466666Y-70306904D01*
X103466666Y-70306904D02*
X103419047Y-70449761D01*
X103419047Y-70449761D02*
X103323809Y-70545000D01*
X103323809Y-70545000D02*
X103180952Y-70592619D01*
X103180952Y-70592619D02*
X103085714Y-70592619D01*
X104419047Y-69592619D02*
X103942857Y-69592619D01*
X103942857Y-69592619D02*
X103895238Y-70068809D01*
X103895238Y-70068809D02*
X103942857Y-70021190D01*
X103942857Y-70021190D02*
X104038095Y-69973571D01*
X104038095Y-69973571D02*
X104276190Y-69973571D01*
X104276190Y-69973571D02*
X104371428Y-70021190D01*
X104371428Y-70021190D02*
X104419047Y-70068809D01*
X104419047Y-70068809D02*
X104466666Y-70164047D01*
X104466666Y-70164047D02*
X104466666Y-70402142D01*
X104466666Y-70402142D02*
X104419047Y-70497380D01*
X104419047Y-70497380D02*
X104371428Y-70545000D01*
X104371428Y-70545000D02*
X104276190Y-70592619D01*
X104276190Y-70592619D02*
X104038095Y-70592619D01*
X104038095Y-70592619D02*
X103942857Y-70545000D01*
X103942857Y-70545000D02*
X103895238Y-70497380D01*
D11*
X100330000Y-76130000D02*
X99000000Y-76130000D01*
X100330000Y-74800000D02*
X100330000Y-76130000D01*
X100330000Y-73530000D02*
X100330000Y-70930000D01*
X100330000Y-73530000D02*
X97670000Y-73530000D01*
X100330000Y-70930000D02*
X97670000Y-70930000D01*
X97670000Y-73530000D02*
X97670000Y-70930000D01*
X79870000Y-71930000D02*
X81200000Y-71930000D01*
X79870000Y-73260000D02*
X79870000Y-71930000D01*
X79870000Y-74530000D02*
X79870000Y-77130000D01*
X79870000Y-74530000D02*
X82530000Y-74530000D01*
X79870000Y-77130000D02*
X82530000Y-77130000D01*
X82530000Y-74530000D02*
X82530000Y-77130000D01*
X80070000Y-79270000D02*
X81400000Y-79270000D01*
X80070000Y-80600000D02*
X80070000Y-79270000D01*
X80070000Y-81870000D02*
X80070000Y-81930000D01*
X80070000Y-81870000D02*
X82730000Y-81870000D01*
X80070000Y-81930000D02*
X82730000Y-81930000D01*
X82730000Y-81870000D02*
X82730000Y-81930000D01*
X95240000Y-81600000D02*
X96010000Y-81600000D01*
X96010000Y-80230000D02*
X96010000Y-82970000D01*
X96010000Y-82970000D02*
X102550000Y-82970000D01*
X102550000Y-80230000D02*
X96010000Y-80230000D01*
X102550000Y-82970000D02*
X102550000Y-80230000D01*
X103320000Y-81600000D02*
X102550000Y-81600000D01*
X82530000Y-69530000D02*
X81200000Y-69530000D01*
X82530000Y-68200000D02*
X82530000Y-69530000D01*
X82530000Y-66930000D02*
X82530000Y-64330000D01*
X82530000Y-66930000D02*
X79870000Y-66930000D01*
X82530000Y-64330000D02*
X79870000Y-64330000D01*
X79870000Y-66930000D02*
X79870000Y-64330000D01*
X82330000Y-61670000D02*
X81000000Y-61670000D01*
X82330000Y-60340000D02*
X82330000Y-61670000D01*
X82330000Y-59070000D02*
X82330000Y-56470000D01*
X82330000Y-59070000D02*
X79670000Y-59070000D01*
X82330000Y-56470000D02*
X79670000Y-56470000D01*
X79670000Y-59070000D02*
X79670000Y-56470000D01*
D12*
X94080000Y-70200000D02*
X94080000Y-53000000D01*
X94080000Y-70200000D02*
X90270000Y-70200000D01*
X90270000Y-70200000D02*
X90270000Y-53000000D01*
X90270000Y-66470000D02*
X90270000Y-56310000D01*
X90270000Y-54000000D02*
X87730000Y-54000000D01*
X90270000Y-53000000D02*
X94080000Y-53000000D01*
X87730000Y-69200000D02*
X90270000Y-69200000D01*
X87730000Y-54000000D02*
X87730000Y-69200000D01*
D11*
X87870000Y-83670000D02*
X89200000Y-83670000D01*
X87870000Y-85000000D02*
X87870000Y-83670000D01*
X87870000Y-86270000D02*
X87870000Y-88870000D01*
X87870000Y-86270000D02*
X90530000Y-86270000D01*
X87870000Y-88870000D02*
X90530000Y-88870000D01*
X90530000Y-86270000D02*
X90530000Y-88870000D01*
X103160000Y-85600000D02*
X102390000Y-85600000D01*
X102390000Y-86970000D02*
X102390000Y-84230000D01*
X102390000Y-84230000D02*
X95850000Y-84230000D01*
X95850000Y-86970000D02*
X102390000Y-86970000D01*
X95850000Y-84230000D02*
X95850000Y-86970000D01*
X95080000Y-85600000D02*
X95850000Y-85600000D01*
X89200000Y-72680000D02*
X89200000Y-73450000D01*
X90570000Y-73450000D02*
X87830000Y-73450000D01*
X87830000Y-73450000D02*
X87830000Y-79990000D01*
X90570000Y-79990000D02*
X90570000Y-73450000D01*
X87830000Y-79990000D02*
X90570000Y-79990000D01*
X89200000Y-80760000D02*
X89200000Y-79990000D01*
X93070000Y-71130000D02*
X94400000Y-71130000D01*
X93070000Y-72460000D02*
X93070000Y-71130000D01*
X93070000Y-73730000D02*
X93070000Y-76330000D01*
X93070000Y-73730000D02*
X95730000Y-73730000D01*
X93070000Y-76330000D02*
X95730000Y-76330000D01*
X95730000Y-73730000D02*
X95730000Y-76330000D01*
X102470000Y-71130000D02*
X103800000Y-71130000D01*
X102470000Y-72460000D02*
X102470000Y-71130000D01*
X102470000Y-73730000D02*
X102470000Y-76330000D01*
X102470000Y-73730000D02*
X105130000Y-73730000D01*
X102470000Y-76330000D02*
X105130000Y-76330000D01*
X105130000Y-73730000D02*
X105130000Y-76330000D01*
M02*
