M48
INCH
T1C0.0394
%
G90
G05
T1
X3.189Y-2.2756
X3.189Y-2.3756
X3.1969Y-2.585
X3.1969Y-2.685
X3.1969Y-2.8843
X3.1969Y-2.9843
X3.2047Y-3.1732
X3.5039Y-2.1669
X3.5039Y-2.2669
X3.5039Y-2.3669
X3.5039Y-2.4669
X3.5039Y-2.5669
X3.5039Y-2.6669
X3.5118Y-2.8205
X3.5118Y-3.2205
X3.5118Y-3.3465
X3.5118Y-3.4465
X3.7024Y-3.3701
X3.7087Y-3.2126
X3.7165Y-2.8528
X3.7165Y-2.9528
X3.8976Y-2.8449
X3.8976Y-2.9449
X4.0866Y-2.8528
X4.0866Y-2.9528
X4.1024Y-3.3701
X4.1087Y-3.2126
T0
M30
