M48
INCH,TZ
T1C0.0315
T2C0.0394
T3C0.0400
T4C0.0402
T5C0.0433
T6C0.0598
%
G90
G05
T1
X44803Y-15449
X44803Y-19449
X44882Y-25244
X44882Y-29244
X55945Y-33071
X57639Y-13701
X59607Y-13701
X63819Y-33071
T2
X44094Y-21339
X44094Y-22339
X44951Y-30831
X44951Y-31831
X44961Y-13071
X46480Y-13071
X47480Y-13071
X55748Y-12913
X63376Y-18417
X63376Y-19417
X63376Y-20417
X63376Y-21417
X63543Y-24803
X63553Y-26831
X63553Y-27831
T3
X46949Y-16307
X46949Y-17307
X46949Y-18307
X46949Y-19307
X46949Y-20307
X46949Y-21307
X46949Y-22307
X46949Y-23307
X46949Y-24307
X46949Y-25307
X46949Y-26307
X46949Y-27307
X46949Y-28307
X46949Y-29307
X46949Y-30307
X52949Y-16307
X52949Y-17307
X52949Y-18307
X52949Y-19307
X52949Y-20307
X52949Y-21307
X52949Y-22307
X52949Y-23307
X52949Y-24307
X52949Y-25307
X52949Y-26307
X52949Y-27307
X52949Y-28307
X52949Y-29307
X52949Y-30307
T4
X56850Y-16362
X56850Y-17362
X56850Y-18362
X56850Y-19362
X56850Y-20362
X56850Y-21362
X56850Y-22362
X56850Y-23362
X61850Y-16362
X61850Y-17362
X61850Y-18362
X61850Y-19362
X61850Y-20362
X61850Y-21362
X61850Y-22362
X61850Y-23362
T5
X42205Y-27244
X42205Y-31244
T6
X46031Y-36457
X48031Y-36457
X50031Y-36457
T0
M30
