G04 #@! TF.GenerationSoftware,KiCad,Pcbnew,7.0.1*
G04 #@! TF.CreationDate,2023-04-17T10:16:54+08:00*
G04 #@! TF.ProjectId,PCB v2,50434220-7632-42e6-9b69-6361645f7063,rev?*
G04 #@! TF.SameCoordinates,Original*
G04 #@! TF.FileFunction,Copper,L2,Bot*
G04 #@! TF.FilePolarity,Positive*
%FSLAX46Y46*%
G04 Gerber Fmt 4.6, Leading zero omitted, Abs format (unit mm)*
G04 Created by KiCad (PCBNEW 7.0.1) date 2023-04-17 10:16:54*
%MOMM*%
%LPD*%
G01*
G04 APERTURE LIST*
G04 #@! TA.AperFunction,ComponentPad*
%ADD10R,1.700000X1.700000*%
G04 #@! TD*
G04 #@! TA.AperFunction,ComponentPad*
%ADD11O,1.700000X1.700000*%
G04 #@! TD*
G04 #@! TA.AperFunction,ComponentPad*
%ADD12R,1.600000X1.600000*%
G04 #@! TD*
G04 #@! TA.AperFunction,ComponentPad*
%ADD13C,1.600000*%
G04 #@! TD*
G04 #@! TA.AperFunction,ComponentPad*
%ADD14R,1.530000X1.530000*%
G04 #@! TD*
G04 #@! TA.AperFunction,ComponentPad*
%ADD15C,1.530000*%
G04 #@! TD*
G04 #@! TA.AperFunction,ComponentPad*
%ADD16O,1.600000X1.600000*%
G04 #@! TD*
G04 #@! TA.AperFunction,ComponentPad*
%ADD17R,3.000000X3.000000*%
G04 #@! TD*
G04 #@! TA.AperFunction,ComponentPad*
%ADD18C,3.000000*%
G04 #@! TD*
G04 #@! TA.AperFunction,ComponentPad*
%ADD19R,2.200000X2.200000*%
G04 #@! TD*
G04 #@! TA.AperFunction,ComponentPad*
%ADD20O,2.200000X2.200000*%
G04 #@! TD*
G04 #@! TA.AperFunction,ComponentPad*
%ADD21R,1.524000X1.524000*%
G04 #@! TD*
G04 #@! TA.AperFunction,ComponentPad*
%ADD22C,1.524000*%
G04 #@! TD*
G04 APERTURE END LIST*
D10*
X141600000Y-32800000D03*
X161425000Y-68150000D03*
D11*
X161425000Y-70690000D03*
D12*
X151402651Y-34800000D03*
D13*
X146402651Y-34800000D03*
D10*
X114175000Y-80850000D03*
D11*
X114175000Y-78310000D03*
D14*
X144400000Y-41560000D03*
D15*
X144400000Y-44100000D03*
X144400000Y-46640000D03*
X144400000Y-49180000D03*
X144400000Y-51720000D03*
X144400000Y-54260000D03*
X144400000Y-56800000D03*
X144400000Y-59340000D03*
X157100000Y-59340000D03*
X157100000Y-56800000D03*
X157100000Y-54260000D03*
X157100000Y-51720000D03*
X157100000Y-49180000D03*
X157100000Y-46640000D03*
X157100000Y-44100000D03*
X157100000Y-41560000D03*
D10*
X112000000Y-54200000D03*
D11*
X112000000Y-56740000D03*
D13*
X113800000Y-39240000D03*
D16*
X113800000Y-49400000D03*
D17*
X127080000Y-92600000D03*
D18*
X122000000Y-92600000D03*
X116920000Y-92600000D03*
D10*
X114200000Y-33200000D03*
X120600000Y-33200000D03*
D11*
X118060000Y-33200000D03*
D12*
X142100000Y-84000000D03*
D13*
X162100000Y-84000000D03*
X114000000Y-64120000D03*
D16*
X114000000Y-74280000D03*
D10*
X160975000Y-54400000D03*
D11*
X160975000Y-51860000D03*
X160975000Y-49320000D03*
X160975000Y-46780000D03*
D19*
X107200000Y-69200000D03*
D20*
X107200000Y-79360000D03*
D10*
X161400000Y-63000000D03*
D21*
X119250000Y-41420000D03*
D22*
X119250000Y-43960000D03*
X119250000Y-46500000D03*
X119250000Y-49040000D03*
X119250000Y-51580000D03*
X119250000Y-54120000D03*
X119250000Y-56660000D03*
X119250000Y-59200000D03*
X119250000Y-61740000D03*
X119250000Y-64280000D03*
X119250000Y-66820000D03*
X119250000Y-69360000D03*
X119250000Y-71900000D03*
X119250000Y-74440000D03*
X119250000Y-76980000D03*
X134490000Y-76980000D03*
X134490000Y-74440000D03*
X134490000Y-71900000D03*
X134490000Y-69360000D03*
X134490000Y-66820000D03*
X134490000Y-64280000D03*
X134490000Y-61740000D03*
X134490000Y-59200000D03*
X134490000Y-56660000D03*
X134490000Y-54120000D03*
X134490000Y-51580000D03*
X134490000Y-49040000D03*
X134490000Y-46500000D03*
X134490000Y-43960000D03*
X134490000Y-41420000D03*
M02*
